Coordinates
version=1
nRows=7
nColumns=46
inDegrees=yes

Units are S.I. units (second, meters, Newtons, ...)
Angles are in degrees.

endheader
time	pelvis_tilt	pelvis_list	pelvis_rotation	pelvis_tx	pelvis_ty	pelvis_tz	bb_angle	bb_tx	bb_ty	bb_tz	hip_flexion_r	hip_adduction_r	hip_rotation_r	knee_angle_r	knee_angle_r_beta	ankle_angle_r	subtalar_angle_r	mtp_angle_r	crank_angle_r	hip_flexion_l	hip_adduction_l	hip_rotation_l	knee_angle_l	knee_angle_l_beta	ankle_angle_l	subtalar_angle_l	mtp_angle_l	crank_angle_l	lumbar_extension	lumbar_bending	lumbar_rotation	arm_flex_r	arm_add_r	arm_rot_r	elbow_flex_r	pro_sup_r	wrist_flex_r	wrist_dev_r	arm_flex_l	arm_add_l	arm_rot_l	elbow_flex_l	pro_sup_l	wrist_flex_l	wrist_dev_l
      7.50000000	    -29.71096799	      9.03824534	     -1.50288004	      0.38549887	      1.07574884	     -0.33068352	      0.00000000	      0.50000000	      0.00000000	      0.25000000	     53.50432113	    -11.72591587	      7.23471386	     37.04702641	      0.64659259	    -10.68624046	     -1.30650315	      0.00000000	      0.00000000	     73.63579150	      0.69097015	     -1.34284320	    105.14759433	      1.83517172	     -9.81983651	     -4.30745633	      0.00000000	      0.00000000	    -89.86969915	     14.45544153	    -22.73142302	     84.69439067	     22.70428773	     38.62140315	    124.28414059	     42.32450578	      0.00000000	      0.00000000	    -31.66515587	    -42.47892072	    -87.32311847	    146.99036384	     44.61238881	      0.00000000	      0.00000000
      7.50500000	    -29.35694165	      9.50285556	     -0.96470208	      0.38535732	      1.07470160	     -0.33052412	      0.00000000	      0.50000000	      0.00000000	      0.25000000	     51.71128379	    -12.65849403	      6.83606501	     35.35929549	      0.61713613	    -11.73046374	     -1.17617309	      0.00000000	      0.00000000	     74.83662323	      1.37169765	     -1.55914303	    106.82023739	      1.86436485	     -8.99618325	     -4.87675233	      0.00000000	      0.00000000	    -89.86730659	     14.53398380	    -23.36299484	     84.15770262	     22.53207932	     38.31470155	    124.70185107	     42.41562161	      0.00000000	      0.00000000	    -32.08800471	    -42.85430209	    -87.45076132	    147.15394005	     44.59874225	      0.00000000	      0.00000000
      7.51000000	    -29.17239231	      9.94269665	     -0.38717477	      0.38502270	      1.07372823	     -0.33029541	      0.00000000	      0.50000000	      0.00000000	      0.25000000	     50.12912092	    -13.53497678	      6.52167303	     33.80824642	      0.59006521	    -12.86357043	     -1.26021906	      0.00000000	      0.00000000	     76.25023623	      2.00821943	     -1.81503102	    108.23819568	      1.88911289	     -8.94124850	     -5.30177970	      0.00000000	      0.00000000	    -89.86033438	     14.26854173	    -24.15800735	     82.57974676	     21.41945155	     37.09682655	    126.44502974	     42.86423426	      0.00000000	      0.00000000	    -33.97709110	    -43.42681303	    -87.85482346	    147.65906763	     44.48891141	      0.00000000	      0.00000000
      7.51500000	    -28.95730796	     10.37501530	     -0.02136149	      0.38483831	      1.07296682	     -0.32984144	      0.00000000	      0.50000000	      0.00000000	      0.25000000	     48.55031119	    -14.28161319	      6.21918607	     32.33614465	      0.56437219	    -13.63057153	     -0.88006838	      0.00000000	      0.00000000	     77.56529603	      2.44852996	     -2.07477501	    109.58753596	      1.91266332	     -8.29100630	     -5.78554721	      0.00000000	      0.00000000	    -89.85428896	     14.15496715	    -24.86539635	     82.33475258	     21.25425426	     36.95214739	    126.75080640	     42.95100546	      0.00000000	      0.00000000	    -34.14445585	    -43.67808369	    -87.97817875	    147.81390484	     44.47718753	      0.00000000	      0.00000000
      7.52000000	    -28.78243529	     10.79655190	      0.47201929	      0.38466184	      1.07245808	     -0.32962905	      0.00000000	      0.50000000	      0.00000000	      0.25000000	     46.97054163	    -15.15314406	      5.62208047	     30.79543316	      0.53748170	    -14.66066702	     -0.51077878	      0.00000000	      0.00000000	     78.89704655	      2.94431605	     -2.37687380	    110.74761411	      1.93291050	     -7.98223856	     -6.40815177	      0.00000000	      0.00000000	    -89.84616440	     14.09432614	    -25.50144295	     81.84519936	     20.71212009	     36.55369056	    127.33740953	     43.07753005	      0.00000000	      0.00000000	    -34.59013748	    -44.09222988	    -88.15993911	    148.01345133	     44.45199673	      0.00000000	      0.00000000
      7.52500000	    -28.74833656	     11.20538069	      0.94962398	      0.38436426	      1.07174998	     -0.32935597	      0.00000000	      0.50000000	      0.00000000	      0.25000000	     45.65437770	    -15.97040510	      5.12834020	     29.60703096	      0.51674017	    -15.37144272	     -0.08891936	      0.00000000	      0.00000000	     80.38432439	      3.37890826	     -2.73629711	    111.73799405	      1.95019590	     -7.94918652	     -7.29149121	      0.00000000	      0.00000000	    -89.83618913	     13.60144861	    -26.30488440	     80.63903528	     18.29606768	     35.82907287	    129.31453595	     43.88639627	      0.00000000	      0.00000000	    -36.14618343	    -44.73333026	    -88.34889377	    148.34091074	     44.47663373	      0.00000000	      0.00000000
      7.53000000	    -28.68471483	     11.51845030	      1.40982662	      0.38428462	      1.07146382	     -0.32907915	      0.00000000	      0.50000000	      0.00000000	      0.25000000	     44.26348498	    -16.74773034	      4.34357698	     28.39576540	      0.49559960	    -16.07133101	      0.44000601	      0.00000000	      0.00000000	     81.75578697	      3.73976896	     -3.08097714	    112.52906651	      1.96400271	     -7.95260552	     -8.02168758	      0.00000000	      0.00000000	    -89.82904327	     13.39124241	    -26.90583263	     80.10787819	     17.10521581	     35.20376705	    129.85425757	     44.10424380	      0.00000000	      0.00000000	    -36.63331685	    -45.33428048	    -88.44914048	    148.47858906	     44.54729444	      0.00000000	      0.00000000
